<?xml version="1.0" encoding="UTF-8"?>
<svg width="33px" height="46px" viewBox="0 0 33 46" version="1.1" xmlns="http://www.w3.org/2000/svg" xmlns:xlink="http://www.w3.org/1999/xlink">
    <title>Group</title>
    <g id="Page-1" stroke="none" stroke-width="1" fill="none" fill-rule="evenodd">
        <g id="Group" transform="translate(0.000000, 0.100000)" fill="#FF4552" fill-rule="nonzero">
            <path d="M16.4,34.2 C16.3,34.2 16.3,34.1 16.4,34.2 L15.9,33.9 L15.8,33.8 L4,25.4 C4,25.4 3.9,25.4 3.9,25.3 L3.7,25.1 L3.6,25 L3.4,25 L-1.77635684e-15,22.6 L6.7,23.6 C7,23.6 7.1,23.7 7.4,23.8 C7.5,23.8 7.7,23.9 7.7,23.9 C8,24 8.1,24.1 8.3,24.2 C8.5,24.3 8.6,24.4 8.8,24.5 C8.9,24.6 9.1,24.7 9.1,24.8 C9.2,24.9 9.3,24.9 9.4,25 C9.6,25.1 9.7,25.2 9.7,25.3 C10,25.6 10.2,25.9 10.5,26.1 L15.8,33.6 L15.9,33.7 L16.4,34.2" id="Path"></path>
            <path d="M16.4,45.8 L15.9,45 L15.8,44.9 L0.1,22.6 L3.5,25 L4.1,25.4 L15.9,33.8 L16,33.8 L16.4,34.1 C16.4,34.1 16.5,34.1 16.5,34.2 L17,33.8 L32.9,22.6 L16.9,45 L16.8,45.1 L16.4,45.8" id="Path"></path>
            <polyline id="Path" points="16.4 30.4 15.9 29.6 15.8 29.5 11.9 24.1 15.8 24.9 15.9 24.9 16.4 25 16.9 24.9 20.7 24 16.9 29.6 16.9 29.7 16.4 30.4"></polyline>
            <path d="M33,22.5 L28,23.2 L26.1,23.5 C24.6,23.7 23.2,24.5 22.3,25.8 L17,33.4 L16.9,33.5 L16.4,34.2 L17,33.6 L17.1,33.5 L16.4,34.2 L29.9,24.6 L33,22.5" id="Path"></path>
            <path d="M18.9,6.7 C18.9,11.1 11.3,13.4 11.3,18.1 C11.2,19.2 11.5,20.3 12,21.3 C12,21.3 9.1,18.5 9.1,15.5 C9.1,12.5 11.9,8 11.9,8 C11.9,10 12.7,10.6 13.5,10.7 L13.6,10.7 C14.5,10.7 15,10 15,9 C15,8 13.9,7 13.9,5 C13.9,3.1 16.3,0 16.3,0 C18,2 18.9,4.3 18.9,6.7" id="Path"></path>
            <path d="M16.8,22.7 C14.4,22.7 12.6,20.8 12.6,18.5 L12.6,18.4 C12.6,13.3 19.7,12.8 19.7,5.9 C19.9,6.2 21.8,8.8 21.8,11.6 C21.8,15.1 18.5,16 18.5,17.7 C18.5,18.4 18.8,18.9 19.8,18.9 C19.9,18.9 20,18.9 20.1,18.8 C22,18 23.3,16.2 23.4,14.1 C23.4,14.2 24.4,22.7 16.8,22.7" id="Path"></path>
            <path d="M19.9,18.9 C20,18.9 20.1,18.9 20.2,18.8 C19.2,19.1 15.5,20 15.5,17.4 C15.5,14.2 21,13.5 21,10.8 C21,9.1 20.6,7.4 19.7,5.9 C19.9,6.2 21.8,8.8 21.8,11.6 C21.8,15.1 18.5,16 18.5,17.7 C18.6,18.4 19,18.9 19.9,18.9" id="Path"></path>
            <path d="M16.9,8.5 C16.9,11 13.7,10.8 13.5,10.7 L13.8,10.7 C14.7,10.7 15.2,10 15.2,9 C15.2,8 14.1,7 14.1,5 C14.1,3.1 16.5,3.55271368e-15 16.5,3.55271368e-15 C15.7,1.3 15.3,2.7 15.2,4.1 C15.2,6.4 16.9,6.6 16.9,8.5" id="Path"></path>
        </g>
    </g>
</svg>