<svg height="203" viewBox="0 0 279 203" width="279" xmlns="http://www.w3.org/2000/svg"><g fill="none" fill-rule="evenodd" transform="translate(.158203 .6)"><path d="m15.9375 61.4v-23.9892578h9.2138672v-10.8740235h-9.2138672v-10.8740234h10.2929688v-11.3720703h-25.15136724v57.109375zm43.4130859 0v-11.3720703h-13.4472656v-45.7373047h-14.8583984v57.109375zm26.3964844 0v-20.6689453l10.7910156-36.4404297h-13.696289c-.608724 2.82226562-1.1897787 5.64453125-1.7431641 8.4667969-.8300781 4.3164062-1.6048177 8.992513-2.3242187 14.0283203-.3320313-2.9329427-.8024089-6.3916016-1.4111329-10.3759766-.110677-.8300781-.8300781-4.8697916-2.1582031-12.1191406h-13.696289l10.3759765 36.4404297v20.6689453zm-70.0585937 70.249023c2.766927 0 5.1464843-.262858 7.1386718-.788574s3.5416667-1.397298 4.6484375-2.614746c1.1067709-1.217448 1.8953451-2.531738 2.3657227-3.942871s.7055664-3.749186.7055664-7.01416c0-5.091146-.5257161-8.826498-1.5771484-11.206055-1.328125-3.04362-4.1227214-5.921224-8.3837891-8.6328123-3.8736979-2.4902344-6.184082-4.2333985-6.9311523-5.2294922-.7470704-.9960938-1.1206055-2.65625-1.1206055-4.9804688 0-2.9882812.8024088-4.4824218 2.4072265-4.4824218 1.1621094 0 1.8538412.6363932 2.0751954 1.9091797.0553385.3320312.0830078 1.2451171.0830078 2.7392578v2.5732422h12.368164l-.0006276-1.1671307c-.0092057-3.0378662-.1196735-5.1390571-.3314036-6.3035725-.3873698-2.047526-1.1897787-3.7353515-2.4072266-5.0634765s-2.7530924-2.1858724-4.6069336-2.5732422c-1.8538411-.3873698-4.3855794-.5810547-7.5952148-.5810547-3.3203125 0-5.97656251.3320312-7.96875001.9960937s-3.54166667 1.9091797-4.6484375 3.7353516c-.77473959 1.3834636-1.2866211 2.8499349-1.53564453 4.3994141-.24902344 1.5494791-.37353516 3.375651-.37353516 5.4785156 0 5.921224 1.63248698 10.4036458 4.89746094 13.447266 1.93684896 1.826171 5.47851566 4.593099 10.62499996 8.300781 1.1067709 1.106771 1.7708334 2.158203 1.9921875 3.154297.2213542.996093.3320313 2.490234.3320313 4.482422 0 3.098958-.8854167 4.648437-2.65625 4.648437-1.0514323 0-1.7016602-.3597-1.9506836-1.079101s-.3735352-2.047526-.3735352-3.984375v-5.3125h-12.45117184v2.158203c0 3.929036.26285808 6.792806.78857422 8.591308.52571615 1.798503 1.35579427 3.361817 2.49023438 4.689942 1.1344401 1.328125 2.67008463 2.26888 4.60693359 2.822265 1.93684895.553386 4.39941405.830078 7.38769535.830078zm41.2548828-.249023v-45.7373047h8.7158203v-11.3720703h-32.4560547v11.3720703h8.8818359v45.7373047zm27.5585937 0v-25.732422c1.8815104 0 3.0989584.332031 3.6523438.996094.5533854.664062.8300781 2.019857.8300781 4.067383v20.668945h13.779297v-17.099609c0-4.150391-.415039-6.972657-1.245117-8.466797-1.051433-1.881511-3.3479821-3.292643-6.8896488-4.233399 3.4863282-.387369 5.7552088-1.438802 6.8066408-3.1542966.885417-1.438802 1.328125-4.3164062 1.328125-8.6328125 0-7.2493489-1.964518-11.8424479-5.8935548-13.7792968-2.3795573-1.1621094-7.9410807-1.7431641-16.6845703-1.7431641h-10.5419922v57.109375zm0-34.6972656v-12.6171875h.6640625c1.6048177 0 2.6839193.415039 3.2373047 1.2451172.3873698.6087239.5810547 1.6601562.5810547 3.1542968v3.1542969c0 2.1028646-.2628581 3.4724935-.7885742 4.1088867-.5257162.6363933-1.7569987.9545899-3.6938477.9545899zm36.9475559 34.6972656.820999-10.292969h5.437012l.753555 10.292969h15.308456l-8.466797-57.109375h-21.499023l-7.553711 57.109375zm5.967483-20.50293h-5.146484c.332031-3.154297.74707-6.723633 1.245117-10.708008.719401-6.1425776 1.272786-10.5419917 1.660156-13.1982417 0 1.3834636.249024 4.6622721.747071 9.8364258.498046 5.1741539.996093 9.8640949 1.49414 14.0698239zm34.863281 20.50293v-57.109375h-14.858398v57.109375zm21.748047.249023c7.249349 0 12.202149-1.411132 14.858399-4.233398 2.047526-2.213542 3.071289-5.948893 3.071289-11.206055v-15.522461h-17.265625v8.798828h3.901367v6.806641c0 2.047526-.304362 3.666179-.913086 4.855957-.608724 1.189779-1.549479 1.784668-2.822266 1.784668-1.604817 0-2.407226-1.438802-2.407226-4.316406v-29.3847658c0-2.3242187.124512-3.984375.373535-4.9804687.249023-.9960938.871582-1.4941406 1.867676-1.4941406 1.272786 0 2.144368.5948893 2.614746 1.7846679.470378 1.1897787.705566 3.0574545.705566 5.6030274v5.1464844h13.945313v-5.8935547c0-5.0358073-1.549479-8.8264974-4.648438-11.3720703-3.098958-2.545573-7.443034-3.8183594-13.032226-3.8183594-4.371745 0-7.954916.8300781-10.749512 2.4902344-2.794596 1.6601562-4.579264 4.1780599-5.354004 7.5537109-.332031 1.2727865-.511881 2.8637695-.539551 4.7729492-.027669 1.9091797-.041504 3.8598633-.041504 5.8520508v19.4238285c0 2.434895.124512 4.510091.373536 6.225586.249023 1.715494.788574 3.320312 1.618652 4.814453 1.162109 2.213541 3.01595 3.818359 5.561523 4.814453s5.506185 1.49414 8.881836 1.49414zm38.847657-.083007v-23.989258h4.316406v23.989258h14.941406v-57.1093754h-14.941406v20.4199219h-4.316406v-20.4199219h-14.941407v57.1093754zm46.982421-.166016v-45.7373047h8.715821v-11.3720703h-32.456055v11.3720703h8.881836v45.7373047zm-256.2456011 32.233 6.2260703 37.767h9.2138672l6.0595703-38.598633v38.598633h12.9492187v-57.109375h-20.2539062c-.1660156 1.604818-.3320313 3.209635-.4980469 4.814453-.4427083 4.205729-.8577474 7.747396-1.2451172 10.625-.6087239 4.593099-1.1621093 8.328451-1.6601562 11.206055-.5533854-3.597005-1.3557943-9.10319-2.4072266-16.518555-.3320312-2.434896-.8024088-5.810547-1.4111328-10.126953h-19.921875v57.109375h12.9492187zm66.3237265 37.767v-11.37207h-10.7910156v-12.617188h9.296875v-10.874023h-9.296875v-10.874024h9.8779297v-11.37207h-24.7363281v57.109375zm23.6572266.249023c3.375651 0 5.838216-.138346 7.387695-.415039 2.324219-.442708 4.219564-1.411132 5.686035-2.905273 1.466472-1.494141 2.338054-3.763021 2.614747-6.806641.051649-.619791.079195-2.661661.082638-6.125607l.000369-23.923221c0-3.652344-.166015-6.225586-.498046-7.719726-.498047-2.268881-1.632487-4.150391-3.403321-5.644532-1.826172-1.660156-4.025879-2.670084-6.599121-3.029785-2.573242-.3597-6.848144-.539551-12.8247069-.539551h-11.1230469v57.109375zm-3.8183594-9.877929v-37.436524c1.7154944 0 2.9191084.235189 3.6108394.705567.691732.470377 1.037598 1.673991 1.037598 3.61084v24.985351c0 2.822266-.083008 4.676107-.249023 5.561524-.332032 1.715494-1.798503 2.573242-4.3994144 2.573242zm39.8437504 9.628906v-57.109375h-14.858399v57.109375zm18.519821 0 .820999-10.292969h5.437012l.753555 10.292969h15.308456l-8.466796-57.109375h-21.499024l-7.553711 57.109375zm5.967483-20.50293h-5.146484c.332031-3.154297.74707-6.723633 1.245117-10.708008.719401-6.142578 1.272787-10.541992 1.660156-13.198242 0 1.383464.249024 4.662272.747071 9.836426s.996093 9.864095 1.49414 14.069824z" fill="#1e1e1e" fill-rule="nonzero"/><path d="m145.114126 12.2454614 21.742788 44.1545855c1.707873 3.4682956.280768 7.6644092-3.187527 9.372282-.962029.4737265-2.020036.7200953-3.092378.7200953h-43.485576c-3.865993 0-7-3.1340067-7-7 0-1.0723416.246369-2.1303482.720095-3.0923773l21.742788-44.1545855c1.707873-3.46829556 5.903987-4.89540018 9.372282-3.18752735 1.384918.68196702 2.505561 1.80260975 3.187528 3.18752735z" fill="#f35757" transform="matrix(0 1 -1 0 171.826645 -105.841797)"/></g></svg>